<?xml version="1.0" encoding="utf-8" standalone="no"?>
<!DOCTYPE svg PUBLIC "-//W3C//DTD SVG 1.1//EN"
  "http://www.w3.org/Graphics/SVG/1.1/DTD/svg11.dtd">
<!-- Created with matplotlib (http://matplotlib.org/) -->
<svg height="288pt" version="1.1" viewBox="0 0 720 288" width="720pt" xmlns="http://www.w3.org/2000/svg" xmlns:xlink="http://www.w3.org/1999/xlink">
 <defs>
  <style type="text/css">
*{stroke-linecap:butt;stroke-linejoin:round;}
  </style>
 </defs>
 <g id="figure_1">
  <g id="patch_1">
   <path d="M 0 288 
L 720 288 
L 720 0 
L 0 0 
z
" style="fill:#ffffff;"/>
  </g>
  <g id="axes_1">
   <g id="patch_2">
    <path d="M 72 108.8 
L 648 108.8 
L 648 28.8 
L 72 28.8 
z
" style="fill:#ffffff;"/>
   </g>
   <g id="matplotlib.axis_1">
    <g id="xtick_1">
     <g id="line2d_1">
      <defs>
       <path d="M 0 0 
L 0 3.5 
" id="me92a03ba57" style="stroke:#000000;stroke-width:0.8;"/>
      </defs>
      <g>
       <use style="stroke:#000000;stroke-width:0.8;" x="72" xlink:href="#me92a03ba57" y="108.8"/>
      </g>
     </g>
     <g id="text_1">
      <!-- $\mathdefault{10^{0}}$ -->
      <defs>
       <path d="M 12.40625 8.296875 
L 28.515625 8.296875 
L 28.515625 63.921875 
L 10.984375 60.40625 
L 10.984375 69.390625 
L 28.421875 72.90625 
L 38.28125 72.90625 
L 38.28125 8.296875 
L 54.390625 8.296875 
L 54.390625 0 
L 12.40625 0 
z
" id="DejaVuSans-31"/>
       <path d="M 31.78125 66.40625 
Q 24.171875 66.40625 20.328125 58.90625 
Q 16.5 51.421875 16.5 36.375 
Q 16.5 21.390625 20.328125 13.890625 
Q 24.171875 6.390625 31.78125 6.390625 
Q 39.453125 6.390625 43.28125 13.890625 
Q 47.125 21.390625 47.125 36.375 
Q 47.125 51.421875 43.28125 58.90625 
Q 39.453125 66.40625 31.78125 66.40625 
z
M 31.78125 74.21875 
Q 44.046875 74.21875 50.515625 64.515625 
Q 56.984375 54.828125 56.984375 36.375 
Q 56.984375 17.96875 50.515625 8.265625 
Q 44.046875 -1.421875 31.78125 -1.421875 
Q 19.53125 -1.421875 13.0625 8.265625 
Q 6.59375 17.96875 6.59375 36.375 
Q 6.59375 54.828125 13.0625 64.515625 
Q 19.53125 74.21875 31.78125 74.21875 
z
" id="DejaVuSans-30"/>
      </defs>
      <g transform="translate(63.2 123.398438)scale(0.1 -0.1)">
       <use transform="translate(0 0.765625)" xlink:href="#DejaVuSans-31"/>
       <use transform="translate(63.623047 0.765625)" xlink:href="#DejaVuSans-30"/>
       <use transform="translate(128.203125 39.046875)scale(0.7)" xlink:href="#DejaVuSans-30"/>
      </g>
     </g>
    </g>
    <g id="xtick_2">
     <g id="line2d_2">
      <g>
       <use style="stroke:#000000;stroke-width:0.8;" x="264" xlink:href="#me92a03ba57" y="108.8"/>
      </g>
     </g>
     <g id="text_2">
      <!-- $\mathdefault{10^{1}}$ -->
      <g transform="translate(255.2 123.398438)scale(0.1 -0.1)">
       <use transform="translate(0 0.684375)" xlink:href="#DejaVuSans-31"/>
       <use transform="translate(63.623047 0.684375)" xlink:href="#DejaVuSans-30"/>
       <use transform="translate(128.203125 38.965625)scale(0.7)" xlink:href="#DejaVuSans-31"/>
      </g>
     </g>
    </g>
    <g id="xtick_3">
     <g id="line2d_3">
      <g>
       <use style="stroke:#000000;stroke-width:0.8;" x="456" xlink:href="#me92a03ba57" y="108.8"/>
      </g>
     </g>
     <g id="text_3">
      <!-- $\mathdefault{10^{2}}$ -->
      <defs>
       <path d="M 19.1875 8.296875 
L 53.609375 8.296875 
L 53.609375 0 
L 7.328125 0 
L 7.328125 8.296875 
Q 12.9375 14.109375 22.625 23.890625 
Q 32.328125 33.6875 34.8125 36.53125 
Q 39.546875 41.84375 41.421875 45.53125 
Q 43.3125 49.21875 43.3125 52.78125 
Q 43.3125 58.59375 39.234375 62.25 
Q 35.15625 65.921875 28.609375 65.921875 
Q 23.96875 65.921875 18.8125 64.3125 
Q 13.671875 62.703125 7.8125 59.421875 
L 7.8125 69.390625 
Q 13.765625 71.78125 18.9375 73 
Q 24.125 74.21875 28.421875 74.21875 
Q 39.75 74.21875 46.484375 68.546875 
Q 53.21875 62.890625 53.21875 53.421875 
Q 53.21875 48.921875 51.53125 44.890625 
Q 49.859375 40.875 45.40625 35.40625 
Q 44.1875 33.984375 37.640625 27.21875 
Q 31.109375 20.453125 19.1875 8.296875 
z
" id="DejaVuSans-32"/>
      </defs>
      <g transform="translate(447.2 123.398438)scale(0.1 -0.1)">
       <use transform="translate(0 0.765625)" xlink:href="#DejaVuSans-31"/>
       <use transform="translate(63.623047 0.765625)" xlink:href="#DejaVuSans-30"/>
       <use transform="translate(128.203125 39.046875)scale(0.7)" xlink:href="#DejaVuSans-32"/>
      </g>
     </g>
    </g>
    <g id="xtick_4">
     <g id="line2d_4">
      <g>
       <use style="stroke:#000000;stroke-width:0.8;" x="648" xlink:href="#me92a03ba57" y="108.8"/>
      </g>
     </g>
     <g id="text_4">
      <!-- $\mathdefault{10^{3}}$ -->
      <defs>
       <path d="M 40.578125 39.3125 
Q 47.65625 37.796875 51.625 33 
Q 55.609375 28.21875 55.609375 21.1875 
Q 55.609375 10.40625 48.1875 4.484375 
Q 40.765625 -1.421875 27.09375 -1.421875 
Q 22.515625 -1.421875 17.65625 -0.515625 
Q 12.796875 0.390625 7.625 2.203125 
L 7.625 11.71875 
Q 11.71875 9.328125 16.59375 8.109375 
Q 21.484375 6.890625 26.8125 6.890625 
Q 36.078125 6.890625 40.9375 10.546875 
Q 45.796875 14.203125 45.796875 21.1875 
Q 45.796875 27.640625 41.28125 31.265625 
Q 36.765625 34.90625 28.71875 34.90625 
L 20.21875 34.90625 
L 20.21875 43.015625 
L 29.109375 43.015625 
Q 36.375 43.015625 40.234375 45.921875 
Q 44.09375 48.828125 44.09375 54.296875 
Q 44.09375 59.90625 40.109375 62.90625 
Q 36.140625 65.921875 28.71875 65.921875 
Q 24.65625 65.921875 20.015625 65.03125 
Q 15.375 64.15625 9.8125 62.3125 
L 9.8125 71.09375 
Q 15.4375 72.65625 20.34375 73.4375 
Q 25.25 74.21875 29.59375 74.21875 
Q 40.828125 74.21875 47.359375 69.109375 
Q 53.90625 64.015625 53.90625 55.328125 
Q 53.90625 49.265625 50.4375 45.09375 
Q 46.96875 40.921875 40.578125 39.3125 
z
" id="DejaVuSans-33"/>
      </defs>
      <g transform="translate(639.2 123.398438)scale(0.1 -0.1)">
       <use transform="translate(0 0.765625)" xlink:href="#DejaVuSans-31"/>
       <use transform="translate(63.623047 0.765625)" xlink:href="#DejaVuSans-30"/>
       <use transform="translate(128.203125 39.046875)scale(0.7)" xlink:href="#DejaVuSans-33"/>
      </g>
     </g>
    </g>
    <g id="xtick_5">
     <g id="line2d_5">
      <defs>
       <path d="M 0 0 
L 0 2 
" id="m63668661cb" style="stroke:#000000;stroke-width:0.6;"/>
      </defs>
      <g>
       <use style="stroke:#000000;stroke-width:0.6;" x="129.797759" xlink:href="#m63668661cb" y="108.8"/>
      </g>
     </g>
    </g>
    <g id="xtick_6">
     <g id="line2d_6">
      <g>
       <use style="stroke:#000000;stroke-width:0.6;" x="163.607281" xlink:href="#m63668661cb" y="108.8"/>
      </g>
     </g>
    </g>
    <g id="xtick_7">
     <g id="line2d_7">
      <g>
       <use style="stroke:#000000;stroke-width:0.6;" x="187.595518" xlink:href="#m63668661cb" y="108.8"/>
      </g>
     </g>
    </g>
    <g id="xtick_8">
     <g id="line2d_8">
      <g>
       <use style="stroke:#000000;stroke-width:0.6;" x="206.202241" xlink:href="#m63668661cb" y="108.8"/>
      </g>
     </g>
    </g>
    <g id="xtick_9">
     <g id="line2d_9">
      <g>
       <use style="stroke:#000000;stroke-width:0.6;" x="221.40504" xlink:href="#m63668661cb" y="108.8"/>
      </g>
     </g>
    </g>
    <g id="xtick_10">
     <g id="line2d_10">
      <g>
       <use style="stroke:#000000;stroke-width:0.6;" x="234.258824" xlink:href="#m63668661cb" y="108.8"/>
      </g>
     </g>
    </g>
    <g id="xtick_11">
     <g id="line2d_11">
      <g>
       <use style="stroke:#000000;stroke-width:0.6;" x="245.393278" xlink:href="#m63668661cb" y="108.8"/>
      </g>
     </g>
    </g>
    <g id="xtick_12">
     <g id="line2d_12">
      <g>
       <use style="stroke:#000000;stroke-width:0.6;" x="255.214562" xlink:href="#m63668661cb" y="108.8"/>
      </g>
     </g>
    </g>
    <g id="xtick_13">
     <g id="line2d_13">
      <g>
       <use style="stroke:#000000;stroke-width:0.6;" x="321.797759" xlink:href="#m63668661cb" y="108.8"/>
      </g>
     </g>
    </g>
    <g id="xtick_14">
     <g id="line2d_14">
      <g>
       <use style="stroke:#000000;stroke-width:0.6;" x="355.607281" xlink:href="#m63668661cb" y="108.8"/>
      </g>
     </g>
    </g>
    <g id="xtick_15">
     <g id="line2d_15">
      <g>
       <use style="stroke:#000000;stroke-width:0.6;" x="379.595518" xlink:href="#m63668661cb" y="108.8"/>
      </g>
     </g>
    </g>
    <g id="xtick_16">
     <g id="line2d_16">
      <g>
       <use style="stroke:#000000;stroke-width:0.6;" x="398.202241" xlink:href="#m63668661cb" y="108.8"/>
      </g>
     </g>
    </g>
    <g id="xtick_17">
     <g id="line2d_17">
      <g>
       <use style="stroke:#000000;stroke-width:0.6;" x="413.40504" xlink:href="#m63668661cb" y="108.8"/>
      </g>
     </g>
    </g>
    <g id="xtick_18">
     <g id="line2d_18">
      <g>
       <use style="stroke:#000000;stroke-width:0.6;" x="426.258824" xlink:href="#m63668661cb" y="108.8"/>
      </g>
     </g>
    </g>
    <g id="xtick_19">
     <g id="line2d_19">
      <g>
       <use style="stroke:#000000;stroke-width:0.6;" x="437.393278" xlink:href="#m63668661cb" y="108.8"/>
      </g>
     </g>
    </g>
    <g id="xtick_20">
     <g id="line2d_20">
      <g>
       <use style="stroke:#000000;stroke-width:0.6;" x="447.214562" xlink:href="#m63668661cb" y="108.8"/>
      </g>
     </g>
    </g>
    <g id="xtick_21">
     <g id="line2d_21">
      <g>
       <use style="stroke:#000000;stroke-width:0.6;" x="513.797759" xlink:href="#m63668661cb" y="108.8"/>
      </g>
     </g>
    </g>
    <g id="xtick_22">
     <g id="line2d_22">
      <g>
       <use style="stroke:#000000;stroke-width:0.6;" x="547.607281" xlink:href="#m63668661cb" y="108.8"/>
      </g>
     </g>
    </g>
    <g id="xtick_23">
     <g id="line2d_23">
      <g>
       <use style="stroke:#000000;stroke-width:0.6;" x="571.595518" xlink:href="#m63668661cb" y="108.8"/>
      </g>
     </g>
    </g>
    <g id="xtick_24">
     <g id="line2d_24">
      <g>
       <use style="stroke:#000000;stroke-width:0.6;" x="590.202241" xlink:href="#m63668661cb" y="108.8"/>
      </g>
     </g>
    </g>
    <g id="xtick_25">
     <g id="line2d_25">
      <g>
       <use style="stroke:#000000;stroke-width:0.6;" x="605.40504" xlink:href="#m63668661cb" y="108.8"/>
      </g>
     </g>
    </g>
    <g id="xtick_26">
     <g id="line2d_26">
      <g>
       <use style="stroke:#000000;stroke-width:0.6;" x="618.258824" xlink:href="#m63668661cb" y="108.8"/>
      </g>
     </g>
    </g>
    <g id="xtick_27">
     <g id="line2d_27">
      <g>
       <use style="stroke:#000000;stroke-width:0.6;" x="629.393278" xlink:href="#m63668661cb" y="108.8"/>
      </g>
     </g>
    </g>
    <g id="xtick_28">
     <g id="line2d_28">
      <g>
       <use style="stroke:#000000;stroke-width:0.6;" x="639.214562" xlink:href="#m63668661cb" y="108.8"/>
      </g>
     </g>
    </g>
   </g>
   <g id="matplotlib.axis_2">
    <g id="ytick_1">
     <g id="line2d_29">
      <defs>
       <path d="M 0 0 
L -3.5 0 
" id="m32c135fd6a" style="stroke:#000000;stroke-width:0.8;"/>
      </defs>
      <g>
       <use style="stroke:#000000;stroke-width:0.8;" x="72" xlink:href="#m32c135fd6a" y="108.800702"/>
      </g>
     </g>
     <g id="text_5">
      <!-- 0 -->
      <g transform="translate(58.6375 112.599921)scale(0.1 -0.1)">
       <use xlink:href="#DejaVuSans-30"/>
      </g>
     </g>
    </g>
    <g id="ytick_2">
     <g id="line2d_30">
      <g>
       <use style="stroke:#000000;stroke-width:0.8;" x="72" xlink:href="#m32c135fd6a" y="73.709597"/>
      </g>
     </g>
     <g id="text_6">
      <!-- 50000 -->
      <defs>
       <path d="M 10.796875 72.90625 
L 49.515625 72.90625 
L 49.515625 64.59375 
L 19.828125 64.59375 
L 19.828125 46.734375 
Q 21.96875 47.46875 24.109375 47.828125 
Q 26.265625 48.1875 28.421875 48.1875 
Q 40.625 48.1875 47.75 41.5 
Q 54.890625 34.8125 54.890625 23.390625 
Q 54.890625 11.625 47.5625 5.09375 
Q 40.234375 -1.421875 26.90625 -1.421875 
Q 22.3125 -1.421875 17.546875 -0.640625 
Q 12.796875 0.140625 7.71875 1.703125 
L 7.71875 11.625 
Q 12.109375 9.234375 16.796875 8.0625 
Q 21.484375 6.890625 26.703125 6.890625 
Q 35.15625 6.890625 40.078125 11.328125 
Q 45.015625 15.765625 45.015625 23.390625 
Q 45.015625 31 40.078125 35.4375 
Q 35.15625 39.890625 26.703125 39.890625 
Q 22.75 39.890625 18.8125 39.015625 
Q 14.890625 38.140625 10.796875 36.28125 
z
" id="DejaVuSans-35"/>
      </defs>
      <g transform="translate(33.1875 77.508815)scale(0.1 -0.1)">
       <use xlink:href="#DejaVuSans-35"/>
       <use x="63.623047" xlink:href="#DejaVuSans-30"/>
       <use x="127.246094" xlink:href="#DejaVuSans-30"/>
       <use x="190.869141" xlink:href="#DejaVuSans-30"/>
       <use x="254.492188" xlink:href="#DejaVuSans-30"/>
      </g>
     </g>
    </g>
    <g id="ytick_3">
     <g id="line2d_31">
      <g>
       <use style="stroke:#000000;stroke-width:0.8;" x="72" xlink:href="#m32c135fd6a" y="38.618491"/>
      </g>
     </g>
     <g id="text_7">
      <!-- 100000 -->
      <g transform="translate(26.825 42.41771)scale(0.1 -0.1)">
       <use xlink:href="#DejaVuSans-31"/>
       <use x="63.623047" xlink:href="#DejaVuSans-30"/>
       <use x="127.246094" xlink:href="#DejaVuSans-30"/>
       <use x="190.869141" xlink:href="#DejaVuSans-30"/>
       <use x="254.492188" xlink:href="#DejaVuSans-30"/>
       <use x="318.115234" xlink:href="#DejaVuSans-30"/>
      </g>
     </g>
    </g>
   </g>
   <g id="line2d_32">
    <path clip-path="url(#pfd592f514d)" d="M -1 53.089315 
L 72 53.356405 
L 129.797759 52.425578 
L 163.607281 52.822528 
L 187.595518 52.223453 
L 206.202241 53.211057 
L 245.393278 50.724501 
L 255.214562 52.21847 
L 264 51.063973 
L 271.947396 50.887114 
L 279.202799 51.709509 
L 285.877124 50.647512 
L 292.056583 51.375161 
L 297.809522 51.399023 
L 303.191037 50.418297 
L 308.246193 50.822897 
L 313.012321 50.472056 
L 317.520691 49.901475 
L 321.797759 49.841258 
L 329.745155 49.512876 
L 333.451745 48.897448 
L 337.000558 48.961595 
L 340.404482 49.651977 
L 343.674883 49.078027 
L 346.821843 48.28974 
L 349.854342 48.837512 
L 352.780416 48.113092 
L 355.607281 48.075053 
L 360.988796 47.136296 
L 363.554676 47.585462 
L 366.043952 47.176861 
L 368.461065 47.219321 
L 370.81008 47.444325 
L 373.094731 47.442711 
L 375.318451 47.296662 
L 377.484405 46.796333 
L 379.595518 46.134795 
L 381.6545 46.082299 
L 383.663864 46.445913 
L 385.625943 46.370678 
L 387.542914 44.982053 
L 389.416803 46.18652 
L 391.249504 45.186985 
L 393.042789 45.824941 
L 394.798318 45.19288 
L 396.517647 44.424034 
L 399.853474 45.504208 
L 401.472642 44.873902 
L 403.060967 44.872217 
L 404.619602 44.357431 
L 406.149636 44.673742 
L 407.652101 43.833451 
L 409.127972 43.933811 
L 410.578175 43.257395 
L 412.003586 43.01681 
L 413.40504 43.458748 
L 416.139204 43.090151 
L 417.473385 43.11675 
L 418.786555 42.739731 
L 420.079364 42.902413 
L 421.352436 42.887886 
L 422.606362 41.468029 
L 423.841711 42.609403 
L 425.059025 41.588392 
L 426.258824 42.171957 
L 427.441603 41.412515 
L 428.607839 41.087993 
L 429.757989 41.616816 
L 430.89249 40.916678 
L 432.011763 40.500638 
L 433.11621 40.503094 
L 434.206219 39.822607 
L 435.282164 40.912046 
L 436.344402 40.342658 
L 437.393278 40.856532 
L 438.429124 39.655363 
L 439.45226 40.08951 
L 440.462994 39.857769 
L 441.461623 39.485873 
L 442.448434 40.092037 
L 444.387697 38.487251 
L 445.340673 39.179738 
L 446.282881 39.524684 
L 447.214562 38.612175 
L 448.135947 39.007231 
L 449.047263 38.518833 
L 449.948726 39.199389 
L 450.840548 38.028259 
L 451.722932 38.793034 
L 452.596077 37.733494 
L 453.460173 37.020442 
L 454.315407 37.877367 
L 455.161957 37.798061 
L 456 37.012722 
L 457.651233 37.184669 
L 458.464747 36.819019 
L 459.270401 35.921389 
L 460.068345 36.525658 
L 460.858726 35.950865 
L 462.417361 37.511718 
L 463.185888 35.096046 
L 463.947396 35.355018 
L 464.702012 34.850408 
L 465.44986 35.558547 
L 466.191061 35.157806 
L 466.925731 35.932618 
L 467.653985 34.891114 
L 468.375934 34.709342 
L 469.091685 35.870156 
L 470.505017 34.226489 
L 471.202799 34.616 
L 471.894791 36.068772 
L 473.261781 34.640564 
L 473.936964 34.314918 
L 474.606722 33.512034 
L 475.271145 34.112092 
L 475.930314 34.288249 
L 476.584314 33.462204 
L 477.233224 33.886807 
L 477.877124 33.406058 
L 478.516089 33.099362 
L 479.779515 32.851619 
L 480.404121 33.695209 
L 481.024084 33.279029 
L 481.63947 32.393329 
L 482.250349 32.226997 
L 482.856785 33.727493 
L 483.458842 33.536597 
L 484.056583 32.053647 
L 484.65007 32.542817 
L 485.239362 31.813624 
L 485.824519 32.330867 
L 486.405598 32.041014 
L 487.555748 32.87899 
L 488.124928 31.374283 
L 488.690249 32.113302 
L 489.251764 32.128742 
L 489.809522 31.297785 
L 490.913969 31.721685 
L 491.460755 31.572197 
L 492.003978 32.174361 
L 492.543686 31.489382 
L 493.079923 31.311821 
L 493.612733 30.263299 
L 494.142161 31.666241 
L 494.668248 30.897044 
L 495.191037 31.420604 
L 496.226883 31.312523 
L 496.74002 31.077413 
L 497.250019 31.231814 
L 497.756917 30.599472 
L 498.260753 30.939856 
L 498.761562 29.654118 
L 499.259382 30.558766 
L 499.754247 30.212066 
L 500.735253 30.195222 
L 501.221462 28.927732 
L 501.704852 30.554555 
L 502.185456 30.513148 
L 502.663305 30.233121 
L 503.138432 30.526482 
L 503.610867 30.466126 
L 504.08064 29.881508 
L 504.547782 29.705351 
L 505.012321 30.826862 
L 505.474286 30.872481 
L 505.933706 31.221988 
L 506.390609 30.210662 
L 506.845022 29.623237 
L 507.296972 29.695525 
L 507.746485 30.459809 
L 508.193588 28.8 
L 508.638307 29.963621 
L 509.080666 28.853338 
L 509.520691 29.861857 
L 509.958407 29.564284 
L 510.393836 28.986685 
L 510.827003 29.508139 
L 511.257932 29.773427 
L 511.686645 29.43936 
L 512.537515 30.01345 
L 512.959717 29.762198 
L 513.379791 29.323559 
L 513.797759 29.19302 
L 514.213643 29.717983 
L 514.627463 30.469635 
L 515.039239 30.841601 
L 515.448992 30.650003 
L 515.856741 30.031698 
L 516.262506 29.199337 
L 516.666306 30.355238 
L 517.06816 29.376898 
L 517.468087 29.769216 
L 517.866105 29.096871 
L 518.262231 29.095467 
L 518.656485 30.17136 
L 519.048884 30.045734 
L 519.439444 30.051349 
L 519.828184 30.751767 
L 520.21512 30.492795 
L 520.600269 29.993098 
L 520.983647 30.457002 
L 521.36527 29.487084 
L 521.745155 29.960814 
L 522.499771 30.602279 
L 522.874534 31.330771 
L 523.24762 30.35243 
L 523.98882 31.462011 
L 524.356965 31.433237 
L 524.723491 30.841601 
L 525.088413 31.422709 
L 525.451745 30.871077 
L 525.8135 30.993194 
L 526.173693 32.092949 
L 526.532337 31.687998 
L 526.889445 32.203135 
L 527.24503 31.803097 
L 527.599105 31.605183 
L 527.951682 32.422104 
L 528.302776 32.287354 
L 528.652397 31.658521 
L 529.000558 31.329367 
L 529.347272 31.895737 
L 529.69255 32.726695 
L 530.036405 32.018556 
L 530.378847 32.535097 
L 530.719888 32.119619 
L 531.059541 33.023565 
L 531.734723 32.51685 
L 532.070275 33.086729 
L 532.404482 32.808808 
L 532.737355 33.714158 
L 533.068904 34.108582 
L 533.39914 33.667838 
L 533.728074 34.630738 
L 534.055715 34.660916 
L 534.382073 34.245438 
L 534.70716 34.568276 
L 535.030984 34.416682 
L 535.353555 35.526965 
L 535.674883 34.154201 
L 535.994977 34.959893 
L 536.313848 36.11439 
L 536.631504 35.845592 
L 536.947954 34.997791 
L 537.263208 35.433623 
L 537.577274 35.581707 
L 537.890162 36.401435 
L 538.20188 36.743223 
L 538.512438 36.47653 
L 538.821843 36.562854 
L 539.130104 36.267387 
L 540.048108 37.50119 
L 540.351877 37.547511 
L 540.654544 37.321524 
L 540.956116 38.134936 
L 541.256601 37.144665 
L 541.854342 38.281617 
L 542.151613 39.038251 
L 542.447829 39.165913 
L 543.037121 38.900904 
L 543.622278 39.793763 
L 543.913324 39.967393 
L 544.203358 39.825274 
L 544.492386 40.774769 
L 544.780416 41.000054 
L 545.067454 41.01367 
L 545.353507 41.184423 
L 545.638583 42.458721 
L 545.922687 41.817396 
L 546.488009 42.707517 
L 546.769238 42.786753 
L 547.049523 43.143419 
L 547.328868 42.401593 
L 547.607281 43.34779 
L 548.161333 43.754706 
L 548.436985 43.146577 
L 548.711728 44.148218 
L 548.985569 43.858155 
L 549.258514 44.699359 
L 549.530568 44.68062 
L 550.072028 46.147007 
L 550.341445 45.544212 
L 550.609995 45.471995 
L 550.877682 45.943759 
L 551.144513 46.908344 
L 551.410492 46.525359 
L 551.675626 47.502787 
L 551.93992 47.445589 
L 552.466007 48.1665 
L 552.727811 48.954366 
L 552.988796 48.627036 
L 553.248966 49.088765 
L 553.508327 48.999282 
L 553.766884 49.620886 
L 554.024642 49.386829 
L 554.281605 50.452265 
L 554.537779 50.027733 
L 555.047778 51.446185 
L 555.301612 51.191564 
L 555.554676 51.731686 
L 555.806975 51.613921 
L 556.058512 52.176361 
L 556.309293 51.873244 
L 556.559322 52.442983 
L 556.808603 53.516841 
L 557.057141 53.699806 
L 557.304941 54.33313 
L 557.552006 54.131006 
L 557.798342 54.439948 
L 558.043952 55.383688 
L 558.288841 55.188441 
L 558.533012 56.636721 
L 558.776471 55.841065 
L 559.019221 56.730274 
L 559.261266 56.884815 
L 559.743259 57.831924 
L 559.983215 57.700052 
L 560.936191 59.377477 
L 561.408626 59.312278 
L 561.643844 59.868331 
L 561.8784 60.778103 
L 562.112297 60.60756 
L 562.345541 61.002265 
L 562.578134 62.061666 
L 562.81008 61.960393 
L 563.041383 62.513428 
L 563.272046 62.621299 
L 563.731466 63.764637 
L 563.96023 63.593884 
L 564.188368 64.190643 
L 564.415884 64.245455 
L 564.642781 64.929942 
L 564.869062 64.939768 
L 565.094731 65.328086 
L 565.319791 66.30804 
L 565.544244 66.420683 
L 565.991348 67.411656 
L 566.214003 67.321331 
L 566.436066 67.875209 
L 566.657539 67.757654 
L 566.878426 68.512814 
L 567.098728 68.582365 
L 567.318451 69.583023 
L 567.537595 69.279344 
L 568.191595 71.036426 
L 568.40846 70.659478 
L 568.624762 71.314348 
L 568.840505 71.456677 
L 569.270323 72.848952 
L 569.484405 72.684936 
L 570.967777 75.683752 
L 571.17755 75.918582 
L 571.386796 76.485303 
L 571.595518 76.666794 
L 572.011402 77.927267 
L 572.218569 77.76662 
L 572.425222 78.119847 
L 572.631364 78.786648 
L 572.836998 78.857181 
L 573.042127 79.088291 
L 573.246751 79.815308 
L 573.6545 80.267282 
L 573.85763 80.630545 
L 574.060265 81.340578 
L 574.26241 81.582567 
L 574.865919 83.03197 
L 575.066123 83.181879 
L 576.846643 86.038786 
L 577.042152 86.77991 
L 577.237204 87.006599 
L 577.625943 87.863103 
L 577.819636 87.947321 
L 578.972436 89.985062 
L 579.353188 90.712992 
L 580.109515 92.044769 
L 580.29753 92.196222 
L 580.485122 92.566223 
L 580.672293 92.48418 
L 580.859044 93.178773 
L 581.045379 93.382442 
L 581.231297 93.255904 
L 581.416803 94.002151 
L 581.786579 94.448089 
L 581.970855 94.94919 
L 582.154724 95.014951 
L 582.338188 95.539773 
L 582.52125 95.657679 
L 582.70391 96.106705 
L 582.886172 96.236682 
L 583.068036 96.858427 
L 583.249504 96.716097 
L 583.611259 97.507331 
L 583.971452 97.908072 
L 584.508841 98.672707 
L 585.396864 99.942654 
L 586.624419 101.460064 
L 586.798318 101.571794 
L 587.317849 102.317417 
L 587.490309 102.330176 
L 587.662414 102.799996 
L 587.834164 102.831445 
L 588.517647 103.619914 
L 590.202241 105.146097 
L 590.535114 105.245489 
L 591.031945 105.838816 
L 591.853474 106.219983 
L 592.179833 106.490612 
L 592.666988 106.687508 
L 593.632843 107.26256 
L 593.952324 107.341607 
L 594.429263 107.557936 
L 595.218148 107.907914 
L 595.531624 107.943819 
L 596.155063 108.099927 
L 598.753875 108.539974 
L 599.353766 108.580083 
L 603.008363 108.748196 
L 607.869787 108.787179 
L 618.733951 108.800702 
L 629.288982 108.800702 
L 629.288982 108.800702 
" style="fill:none;stroke:#ff0000;stroke-linecap:square;stroke-width:1.5;"/>
   </g>
   <g id="line2d_33">
    <path clip-path="url(#pfd592f514d)" d="M -1 52.65157 
L 72 52.918257 
L 129.797759 52.970332 
L 163.607281 52.846812 
L 206.202241 52.146674 
L 221.40504 52.244929 
L 234.258824 52.053051 
L 245.393278 52.083089 
L 255.214562 51.686419 
L 264 51.645573 
L 279.202799 50.898834 
L 285.877124 50.98193 
L 292.056583 50.652214 
L 297.809522 50.6007 
L 303.191037 50.068719 
L 308.246193 50.160237 
L 313.012321 49.933829 
L 317.520691 49.925688 
L 321.797759 49.672891 
L 329.745155 49.944216 
L 333.451745 49.196214 
L 337.000558 49.028057 
L 340.404482 48.68248 
L 343.674883 48.785928 
L 346.821843 48.420139 
L 349.854342 48.631387 
L 352.780416 48.099125 
L 355.607281 48.331428 
L 358.341445 48.212399 
L 360.988796 47.433938 
L 363.554676 47.744144 
L 366.043952 47.219181 
L 370.81008 47.341579 
L 373.094731 47.028987 
L 375.318451 46.867428 
L 377.484405 46.555959 
L 379.595518 46.598349 
L 381.6545 46.45616 
L 383.663864 45.875753 
L 385.625943 46.065245 
L 387.542914 45.84782 
L 389.416803 45.827468 
L 393.042789 44.812633 
L 396.517647 45.076097 
L 398.202241 44.68813 
L 399.853474 45.104872 
L 401.472642 44.16822 
L 403.060967 44.595489 
L 404.619602 44.204153 
L 406.149636 44.509165 
L 409.127972 43.684524 
L 410.578175 43.778287 
L 412.003586 43.57897 
L 413.40504 43.573215 
L 414.783328 43.366318 
L 416.139204 43.35172 
L 417.473385 42.811317 
L 418.786555 42.926416 
L 420.079364 42.385592 
L 421.352436 42.150341 
L 422.606362 42.616912 
L 423.841711 41.951164 
L 425.059025 42.087036 
L 426.258824 41.837188 
L 427.441603 41.415112 
L 428.607839 41.338052 
L 429.757989 40.991913 
L 430.89249 41.343807 
L 432.011763 41.137752 
L 434.206219 40.488707 
L 435.282164 40.56689 
L 436.344402 40.102564 
L 437.393278 40.011608 
L 438.429124 40.191696 
L 439.45226 40.157166 
L 441.461623 39.794324 
L 442.448434 39.225006 
L 443.423703 39.186265 
L 444.387697 39.45001 
L 445.340673 39.158473 
L 447.214562 38.883359 
L 448.135947 38.912134 
L 449.047263 38.334955 
L 449.948726 38.576101 
L 450.840548 38.363028 
L 451.722932 37.649415 
L 452.596077 38.381135 
L 453.460173 38.026996 
L 456 37.620921 
L 456.829704 37.352264 
L 457.651233 37.628641 
L 458.464747 37.289661 
L 460.068345 37.091747 
L 460.858726 36.572399 
L 461.641685 36.304443 
L 462.417361 36.311602 
L 463.185888 36.637107 
L 463.947396 36.539694 
L 464.702012 36.27216 
L 465.44986 35.45959 
L 466.191061 35.811484 
L 466.925731 35.962937 
L 467.653985 35.467871 
L 468.375934 35.688945 
L 469.091685 35.356141 
L 469.801345 35.431377 
L 470.505017 35.173808 
L 472.581087 34.840021 
L 473.261781 34.490935 
L 473.936964 34.605894 
L 474.606722 34.458792 
L 475.271145 33.75318 
L 475.930314 34.336113 
L 476.584314 33.810869 
L 477.233224 33.989132 
L 477.877124 33.741389 
L 478.516089 34.034751 
L 479.150195 33.748828 
L 479.779515 33.595129 
L 480.404121 33.664189 
L 481.63947 32.767962 
L 482.250349 33.212356 
L 482.856785 32.723607 
L 483.458842 32.685428 
L 484.056583 32.778349 
L 484.65007 33.069745 
L 485.239362 32.469968 
L 485.824519 32.370169 
L 486.405598 32.133515 
L 487.555748 32.415086 
L 488.690249 31.881139 
L 489.809522 31.901212 
L 490.363574 31.408532 
L 490.913969 31.369651 
L 491.460755 31.659644 
L 492.543686 31.494997 
L 493.079923 31.076851 
L 493.612733 31.802956 
L 494.142161 31.228726 
L 494.668248 31.825836 
L 495.191037 31.247113 
L 495.710568 30.959366 
L 496.74002 31.128786 
L 497.756917 30.521289 
L 498.260753 30.991089 
L 498.761562 30.519183 
L 499.259382 30.807773 
L 499.754247 30.868972 
L 500.246193 30.522833 
L 500.735253 30.699271 
L 501.221462 30.38317 
L 501.704852 31.27266 
L 502.185456 30.649722 
L 503.138432 30.315234 
L 503.610867 30.644529 
L 504.547782 30.357484 
L 505.012321 30.341061 
L 505.474286 30.495041 
L 506.390609 30.11746 
L 506.845022 30.447317 
L 507.296972 30.009661 
L 508.638307 30.052051 
L 509.080666 30.328428 
L 509.520691 30.837109 
L 509.958407 30.241262 
L 510.827003 29.89372 
L 512.113166 30.369695 
L 512.537515 30.006432 
L 512.959717 30.226524 
L 513.379791 30.216277 
L 513.797759 30.392575 
L 514.213643 29.892035 
L 514.627463 29.875613 
L 515.039239 30.283792 
L 515.448992 29.974991 
L 515.856741 30.247859 
L 516.262506 30.343588 
L 516.666306 30.02468 
L 517.06816 30.133181 
L 517.468087 30.803281 
L 517.866105 30.265826 
L 518.262231 30.312988 
L 518.656485 30.722993 
L 519.439444 30.436088 
L 519.828184 30.499532 
L 520.21512 30.881464 
L 520.983647 30.763418 
L 521.36527 31.077553 
L 521.745155 31.100854 
L 522.123317 31.273221 
L 522.499771 31.175668 
L 522.874534 30.845952 
L 523.98882 31.105907 
L 524.356965 30.968911 
L 524.723491 31.347755 
L 525.088413 31.132857 
L 525.8135 31.59634 
L 526.173693 31.499348 
L 526.532337 31.637186 
L 526.889445 31.562512 
L 527.24503 31.640555 
L 527.599105 32.184888 
L 527.951682 32.107828 
L 528.302776 32.515165 
L 528.652397 32.396277 
L 529.000558 32.628018 
L 529.347272 32.521903 
L 529.69255 32.905519 
L 530.036405 32.506744 
L 530.378847 32.939347 
L 530.719888 32.38968 
L 531.059541 32.840249 
L 531.397815 32.839548 
L 531.734723 33.153122 
L 532.070275 32.978087 
L 532.404482 33.263589 
L 532.737355 33.810729 
L 533.068904 33.701526 
L 533.728074 34.295829 
L 534.055715 34.267194 
L 534.382073 34.499638 
L 534.70716 34.579084 
L 535.030984 34.342289 
L 535.353555 34.998914 
L 535.674883 34.802825 
L 535.994977 35.180124 
L 536.313848 35.296346 
L 536.631504 35.937531 
L 536.947954 35.983009 
L 537.263208 35.557705 
L 537.577274 36.205767 
L 537.890162 36.442983 
L 538.20188 36.375468 
L 538.512438 36.586716 
L 538.821843 36.468249 
L 539.130104 36.961489 
L 539.43723 36.791227 
L 539.743228 37.248394 
L 540.048108 37.223409 
L 540.351877 37.555511 
L 540.654544 37.553406 
L 540.956116 37.848873 
L 541.256601 37.948813 
L 541.556007 37.868384 
L 541.854342 38.311374 
L 542.742996 38.861462 
L 543.037121 39.283538 
L 543.622278 39.635291 
L 543.913324 39.595287 
L 544.492386 40.671742 
L 544.780416 40.442527 
L 545.067454 41.154034 
L 545.353507 41.160351 
L 545.638583 40.943909 
L 546.488009 42.181782 
L 546.769238 42.606806 
L 547.049523 42.567644 
L 547.328868 43.028741 
L 547.607281 43.103415 
L 548.436985 43.792183 
L 548.711728 44.245139 
L 549.258514 44.594928 
L 549.801738 45.248324 
L 550.072028 45.178844 
L 550.341445 45.486101 
L 550.877682 46.555117 
L 551.144513 46.57968 
L 551.410492 46.764962 
L 552.466007 48.256334 
L 552.727811 48.273318 
L 554.281605 50.075597 
L 554.537779 50.575154 
L 555.047778 50.826406 
L 555.301612 51.385899 
L 555.554676 51.502401 
L 557.304941 53.991483 
L 557.798342 54.333832 
L 558.043952 54.897957 
L 558.288841 55.037479 
L 558.776471 55.926547 
L 559.261266 56.816879 
L 559.983215 57.395742 
L 560.698966 58.594594 
L 560.936191 58.517534 
L 561.408626 59.483382 
L 561.8784 60.343535 
L 562.112297 60.553239 
L 563.731466 63.168229 
L 563.96023 63.408953 
L 564.188368 64.066982 
L 564.642781 64.639809 
L 564.869062 64.682059 
L 565.544244 66.005274 
L 565.768096 66.248245 
L 566.214003 67.315155 
L 566.436066 67.487242 
L 566.878426 68.408173 
L 567.318451 69.047392 
L 568.191595 70.729239 
L 569.484405 72.918643 
L 570.335275 74.4583 
L 570.546642 74.605402 
L 570.757476 75.222865 
L 570.967777 75.310733 
L 571.386796 76.21075 
L 572.218569 77.782832 
L 572.631364 78.546414 
L 572.836998 78.654916 
L 573.450875 80.021223 
L 574.464065 81.823783 
L 574.665235 82.028996 
L 575.066123 82.956524 
L 575.465092 83.764883 
L 575.663864 83.904124 
L 576.059991 84.764558 
L 576.454244 85.234498 
L 576.846643 86.209469 
L 577.4318 87.145981 
L 577.625943 87.639923 
L 577.819636 87.782814 
L 578.398028 88.896606 
L 578.781406 89.563056 
L 578.972436 90.090686 
L 579.163029 90.214628 
L 582.70391 96.131269 
L 583.068036 96.680655 
L 584.508841 98.777082 
L 588.176606 103.310965 
L 588.347301 103.366985 
L 588.8573 103.930141 
L 590.035305 104.973582 
L 590.368843 105.23087 
L 590.701053 105.467426 
L 591.361528 105.993961 
L 594.270586 107.493359 
L 594.587638 107.597544 
L 595.531624 107.908894 
L 598.452303 108.479547 
L 599.800869 108.612597 
L 603.008363 108.741939 
L 606.097032 108.780279 
L 624.233825 108.800618 
L 629.288982 108.800702 
L 629.288982 108.800702 
" style="fill:none;stroke:#0000ff;stroke-dasharray:5.55,2.4;stroke-dashoffset:0;stroke-width:1.5;"/>
   </g>
   <g id="patch_3">
    <path d="M 72 108.8 
L 72 28.8 
" style="fill:none;stroke:#000000;stroke-linecap:square;stroke-linejoin:miter;stroke-width:0.8;"/>
   </g>
   <g id="patch_4">
    <path d="M 648 108.8 
L 648 28.8 
" style="fill:none;stroke:#000000;stroke-linecap:square;stroke-linejoin:miter;stroke-width:0.8;"/>
   </g>
   <g id="patch_5">
    <path d="M 72 108.8 
L 648 108.8 
" style="fill:none;stroke:#000000;stroke-linecap:square;stroke-linejoin:miter;stroke-width:0.8;"/>
   </g>
   <g id="patch_6">
    <path d="M 72 28.8 
L 648 28.8 
" style="fill:none;stroke:#000000;stroke-linecap:square;stroke-linejoin:miter;stroke-width:0.8;"/>
   </g>
   <g id="text_8">
    <!-- Energy per depth slice (eV/nm) -->
    <defs>
     <path d="M 9.8125 72.90625 
L 55.90625 72.90625 
L 55.90625 64.59375 
L 19.671875 64.59375 
L 19.671875 43.015625 
L 54.390625 43.015625 
L 54.390625 34.71875 
L 19.671875 34.71875 
L 19.671875 8.296875 
L 56.78125 8.296875 
L 56.78125 0 
L 9.8125 0 
z
" id="DejaVuSans-45"/>
     <path d="M 54.890625 33.015625 
L 54.890625 0 
L 45.90625 0 
L 45.90625 32.71875 
Q 45.90625 40.484375 42.875 44.328125 
Q 39.84375 48.1875 33.796875 48.1875 
Q 26.515625 48.1875 22.3125 43.546875 
Q 18.109375 38.921875 18.109375 30.90625 
L 18.109375 0 
L 9.078125 0 
L 9.078125 54.6875 
L 18.109375 54.6875 
L 18.109375 46.1875 
Q 21.34375 51.125 25.703125 53.5625 
Q 30.078125 56 35.796875 56 
Q 45.21875 56 50.046875 50.171875 
Q 54.890625 44.34375 54.890625 33.015625 
z
" id="DejaVuSans-6e"/>
     <path d="M 56.203125 29.59375 
L 56.203125 25.203125 
L 14.890625 25.203125 
Q 15.484375 15.921875 20.484375 11.0625 
Q 25.484375 6.203125 34.421875 6.203125 
Q 39.59375 6.203125 44.453125 7.46875 
Q 49.3125 8.734375 54.109375 11.28125 
L 54.109375 2.78125 
Q 49.265625 0.734375 44.1875 -0.34375 
Q 39.109375 -1.421875 33.890625 -1.421875 
Q 20.796875 -1.421875 13.15625 6.1875 
Q 5.515625 13.8125 5.515625 26.8125 
Q 5.515625 40.234375 12.765625 48.109375 
Q 20.015625 56 32.328125 56 
Q 43.359375 56 49.78125 48.890625 
Q 56.203125 41.796875 56.203125 29.59375 
z
M 47.21875 32.234375 
Q 47.125 39.59375 43.09375 43.984375 
Q 39.0625 48.390625 32.421875 48.390625 
Q 24.90625 48.390625 20.390625 44.140625 
Q 15.875 39.890625 15.1875 32.171875 
z
" id="DejaVuSans-65"/>
     <path d="M 41.109375 46.296875 
Q 39.59375 47.171875 37.8125 47.578125 
Q 36.03125 48 33.890625 48 
Q 26.265625 48 22.1875 43.046875 
Q 18.109375 38.09375 18.109375 28.8125 
L 18.109375 0 
L 9.078125 0 
L 9.078125 54.6875 
L 18.109375 54.6875 
L 18.109375 46.1875 
Q 20.953125 51.171875 25.484375 53.578125 
Q 30.03125 56 36.53125 56 
Q 37.453125 56 38.578125 55.875 
Q 39.703125 55.765625 41.0625 55.515625 
z
" id="DejaVuSans-72"/>
     <path d="M 45.40625 27.984375 
Q 45.40625 37.75 41.375 43.109375 
Q 37.359375 48.484375 30.078125 48.484375 
Q 22.859375 48.484375 18.828125 43.109375 
Q 14.796875 37.75 14.796875 27.984375 
Q 14.796875 18.265625 18.828125 12.890625 
Q 22.859375 7.515625 30.078125 7.515625 
Q 37.359375 7.515625 41.375 12.890625 
Q 45.40625 18.265625 45.40625 27.984375 
z
M 54.390625 6.78125 
Q 54.390625 -7.171875 48.1875 -13.984375 
Q 42 -20.796875 29.203125 -20.796875 
Q 24.46875 -20.796875 20.265625 -20.09375 
Q 16.0625 -19.390625 12.109375 -17.921875 
L 12.109375 -9.1875 
Q 16.0625 -11.328125 19.921875 -12.34375 
Q 23.78125 -13.375 27.78125 -13.375 
Q 36.625 -13.375 41.015625 -8.765625 
Q 45.40625 -4.15625 45.40625 5.171875 
L 45.40625 9.625 
Q 42.625 4.78125 38.28125 2.390625 
Q 33.9375 0 27.875 0 
Q 17.828125 0 11.671875 7.65625 
Q 5.515625 15.328125 5.515625 27.984375 
Q 5.515625 40.671875 11.671875 48.328125 
Q 17.828125 56 27.875 56 
Q 33.9375 56 38.28125 53.609375 
Q 42.625 51.21875 45.40625 46.390625 
L 45.40625 54.6875 
L 54.390625 54.6875 
z
" id="DejaVuSans-67"/>
     <path d="M 32.171875 -5.078125 
Q 28.375 -14.84375 24.75 -17.8125 
Q 21.140625 -20.796875 15.09375 -20.796875 
L 7.90625 -20.796875 
L 7.90625 -13.28125 
L 13.1875 -13.28125 
Q 16.890625 -13.28125 18.9375 -11.515625 
Q 21 -9.765625 23.484375 -3.21875 
L 25.09375 0.875 
L 2.984375 54.6875 
L 12.5 54.6875 
L 29.59375 11.921875 
L 46.6875 54.6875 
L 56.203125 54.6875 
z
" id="DejaVuSans-79"/>
     <path id="DejaVuSans-20"/>
     <path d="M 18.109375 8.203125 
L 18.109375 -20.796875 
L 9.078125 -20.796875 
L 9.078125 54.6875 
L 18.109375 54.6875 
L 18.109375 46.390625 
Q 20.953125 51.265625 25.265625 53.625 
Q 29.59375 56 35.59375 56 
Q 45.5625 56 51.78125 48.09375 
Q 58.015625 40.1875 58.015625 27.296875 
Q 58.015625 14.40625 51.78125 6.484375 
Q 45.5625 -1.421875 35.59375 -1.421875 
Q 29.59375 -1.421875 25.265625 0.953125 
Q 20.953125 3.328125 18.109375 8.203125 
z
M 48.6875 27.296875 
Q 48.6875 37.203125 44.609375 42.84375 
Q 40.53125 48.484375 33.40625 48.484375 
Q 26.265625 48.484375 22.1875 42.84375 
Q 18.109375 37.203125 18.109375 27.296875 
Q 18.109375 17.390625 22.1875 11.75 
Q 26.265625 6.109375 33.40625 6.109375 
Q 40.53125 6.109375 44.609375 11.75 
Q 48.6875 17.390625 48.6875 27.296875 
z
" id="DejaVuSans-70"/>
     <path d="M 45.40625 46.390625 
L 45.40625 75.984375 
L 54.390625 75.984375 
L 54.390625 0 
L 45.40625 0 
L 45.40625 8.203125 
Q 42.578125 3.328125 38.25 0.953125 
Q 33.9375 -1.421875 27.875 -1.421875 
Q 17.96875 -1.421875 11.734375 6.484375 
Q 5.515625 14.40625 5.515625 27.296875 
Q 5.515625 40.1875 11.734375 48.09375 
Q 17.96875 56 27.875 56 
Q 33.9375 56 38.25 53.625 
Q 42.578125 51.265625 45.40625 46.390625 
z
M 14.796875 27.296875 
Q 14.796875 17.390625 18.875 11.75 
Q 22.953125 6.109375 30.078125 6.109375 
Q 37.203125 6.109375 41.296875 11.75 
Q 45.40625 17.390625 45.40625 27.296875 
Q 45.40625 37.203125 41.296875 42.84375 
Q 37.203125 48.484375 30.078125 48.484375 
Q 22.953125 48.484375 18.875 42.84375 
Q 14.796875 37.203125 14.796875 27.296875 
z
" id="DejaVuSans-64"/>
     <path d="M 18.3125 70.21875 
L 18.3125 54.6875 
L 36.8125 54.6875 
L 36.8125 47.703125 
L 18.3125 47.703125 
L 18.3125 18.015625 
Q 18.3125 11.328125 20.140625 9.421875 
Q 21.96875 7.515625 27.59375 7.515625 
L 36.8125 7.515625 
L 36.8125 0 
L 27.59375 0 
Q 17.1875 0 13.234375 3.875 
Q 9.28125 7.765625 9.28125 18.015625 
L 9.28125 47.703125 
L 2.6875 47.703125 
L 2.6875 54.6875 
L 9.28125 54.6875 
L 9.28125 70.21875 
z
" id="DejaVuSans-74"/>
     <path d="M 54.890625 33.015625 
L 54.890625 0 
L 45.90625 0 
L 45.90625 32.71875 
Q 45.90625 40.484375 42.875 44.328125 
Q 39.84375 48.1875 33.796875 48.1875 
Q 26.515625 48.1875 22.3125 43.546875 
Q 18.109375 38.921875 18.109375 30.90625 
L 18.109375 0 
L 9.078125 0 
L 9.078125 75.984375 
L 18.109375 75.984375 
L 18.109375 46.1875 
Q 21.34375 51.125 25.703125 53.5625 
Q 30.078125 56 35.796875 56 
Q 45.21875 56 50.046875 50.171875 
Q 54.890625 44.34375 54.890625 33.015625 
z
" id="DejaVuSans-68"/>
     <path d="M 44.28125 53.078125 
L 44.28125 44.578125 
Q 40.484375 46.53125 36.375 47.5 
Q 32.28125 48.484375 27.875 48.484375 
Q 21.1875 48.484375 17.84375 46.4375 
Q 14.5 44.390625 14.5 40.28125 
Q 14.5 37.15625 16.890625 35.375 
Q 19.28125 33.59375 26.515625 31.984375 
L 29.59375 31.296875 
Q 39.15625 29.25 43.1875 25.515625 
Q 47.21875 21.78125 47.21875 15.09375 
Q 47.21875 7.46875 41.1875 3.015625 
Q 35.15625 -1.421875 24.609375 -1.421875 
Q 20.21875 -1.421875 15.453125 -0.5625 
Q 10.6875 0.296875 5.421875 2 
L 5.421875 11.28125 
Q 10.40625 8.6875 15.234375 7.390625 
Q 20.0625 6.109375 24.8125 6.109375 
Q 31.15625 6.109375 34.5625 8.28125 
Q 37.984375 10.453125 37.984375 14.40625 
Q 37.984375 18.0625 35.515625 20.015625 
Q 33.0625 21.96875 24.703125 23.78125 
L 21.578125 24.515625 
Q 13.234375 26.265625 9.515625 29.90625 
Q 5.8125 33.546875 5.8125 39.890625 
Q 5.8125 47.609375 11.28125 51.796875 
Q 16.75 56 26.8125 56 
Q 31.78125 56 36.171875 55.265625 
Q 40.578125 54.546875 44.28125 53.078125 
z
" id="DejaVuSans-73"/>
     <path d="M 9.421875 75.984375 
L 18.40625 75.984375 
L 18.40625 0 
L 9.421875 0 
z
" id="DejaVuSans-6c"/>
     <path d="M 9.421875 54.6875 
L 18.40625 54.6875 
L 18.40625 0 
L 9.421875 0 
z
M 9.421875 75.984375 
L 18.40625 75.984375 
L 18.40625 64.59375 
L 9.421875 64.59375 
z
" id="DejaVuSans-69"/>
     <path d="M 48.78125 52.59375 
L 48.78125 44.1875 
Q 44.96875 46.296875 41.140625 47.34375 
Q 37.3125 48.390625 33.40625 48.390625 
Q 24.65625 48.390625 19.8125 42.84375 
Q 14.984375 37.3125 14.984375 27.296875 
Q 14.984375 17.28125 19.8125 11.734375 
Q 24.65625 6.203125 33.40625 6.203125 
Q 37.3125 6.203125 41.140625 7.25 
Q 44.96875 8.296875 48.78125 10.40625 
L 48.78125 2.09375 
Q 45.015625 0.34375 40.984375 -0.53125 
Q 36.96875 -1.421875 32.421875 -1.421875 
Q 20.0625 -1.421875 12.78125 6.34375 
Q 5.515625 14.109375 5.515625 27.296875 
Q 5.515625 40.671875 12.859375 48.328125 
Q 20.21875 56 33.015625 56 
Q 37.15625 56 41.109375 55.140625 
Q 45.0625 54.296875 48.78125 52.59375 
z
" id="DejaVuSans-63"/>
     <path d="M 31 75.875 
Q 24.46875 64.65625 21.28125 53.65625 
Q 18.109375 42.671875 18.109375 31.390625 
Q 18.109375 20.125 21.3125 9.0625 
Q 24.515625 -2 31 -13.1875 
L 23.1875 -13.1875 
Q 15.875 -1.703125 12.234375 9.375 
Q 8.59375 20.453125 8.59375 31.390625 
Q 8.59375 42.28125 12.203125 53.3125 
Q 15.828125 64.359375 23.1875 75.875 
z
" id="DejaVuSans-28"/>
     <path d="M 28.609375 0 
L 0.78125 72.90625 
L 11.078125 72.90625 
L 34.1875 11.53125 
L 57.328125 72.90625 
L 67.578125 72.90625 
L 39.796875 0 
z
" id="DejaVuSans-56"/>
     <path d="M 25.390625 72.90625 
L 33.6875 72.90625 
L 8.296875 -9.28125 
L 0 -9.28125 
z
" id="DejaVuSans-2f"/>
     <path d="M 52 44.1875 
Q 55.375 50.25 60.0625 53.125 
Q 64.75 56 71.09375 56 
Q 79.640625 56 84.28125 50.015625 
Q 88.921875 44.046875 88.921875 33.015625 
L 88.921875 0 
L 79.890625 0 
L 79.890625 32.71875 
Q 79.890625 40.578125 77.09375 44.375 
Q 74.3125 48.1875 68.609375 48.1875 
Q 61.625 48.1875 57.5625 43.546875 
Q 53.515625 38.921875 53.515625 30.90625 
L 53.515625 0 
L 44.484375 0 
L 44.484375 32.71875 
Q 44.484375 40.625 41.703125 44.40625 
Q 38.921875 48.1875 33.109375 48.1875 
Q 26.21875 48.1875 22.15625 43.53125 
Q 18.109375 38.875 18.109375 30.90625 
L 18.109375 0 
L 9.078125 0 
L 9.078125 54.6875 
L 18.109375 54.6875 
L 18.109375 46.1875 
Q 21.1875 51.21875 25.484375 53.609375 
Q 29.78125 56 35.6875 56 
Q 41.65625 56 45.828125 52.96875 
Q 50 49.953125 52 44.1875 
z
" id="DejaVuSans-6d"/>
     <path d="M 8.015625 75.875 
L 15.828125 75.875 
Q 23.140625 64.359375 26.78125 53.3125 
Q 30.421875 42.28125 30.421875 31.390625 
Q 30.421875 20.453125 26.78125 9.375 
Q 23.140625 -1.703125 15.828125 -13.1875 
L 8.015625 -13.1875 
Q 14.5 -2 17.703125 9.0625 
Q 20.90625 20.125 20.90625 31.390625 
Q 20.90625 42.671875 17.703125 53.65625 
Q 14.5 64.65625 8.015625 75.875 
z
" id="DejaVuSans-29"/>
    </defs>
    <g transform="translate(266.232188 22.8)scale(0.12 -0.12)">
     <use xlink:href="#DejaVuSans-45"/>
     <use x="63.183594" xlink:href="#DejaVuSans-6e"/>
     <use x="126.5625" xlink:href="#DejaVuSans-65"/>
     <use x="188.085938" xlink:href="#DejaVuSans-72"/>
     <use x="229.183594" xlink:href="#DejaVuSans-67"/>
     <use x="292.660156" xlink:href="#DejaVuSans-79"/>
     <use x="351.839844" xlink:href="#DejaVuSans-20"/>
     <use x="383.626953" xlink:href="#DejaVuSans-70"/>
     <use x="447.103516" xlink:href="#DejaVuSans-65"/>
     <use x="508.626953" xlink:href="#DejaVuSans-72"/>
     <use x="549.740234" xlink:href="#DejaVuSans-20"/>
     <use x="581.527344" xlink:href="#DejaVuSans-64"/>
     <use x="645.003906" xlink:href="#DejaVuSans-65"/>
     <use x="706.527344" xlink:href="#DejaVuSans-70"/>
     <use x="770.003906" xlink:href="#DejaVuSans-74"/>
     <use x="809.212891" xlink:href="#DejaVuSans-68"/>
     <use x="872.591797" xlink:href="#DejaVuSans-20"/>
     <use x="904.378906" xlink:href="#DejaVuSans-73"/>
     <use x="956.478516" xlink:href="#DejaVuSans-6c"/>
     <use x="984.261719" xlink:href="#DejaVuSans-69"/>
     <use x="1012.044922" xlink:href="#DejaVuSans-63"/>
     <use x="1067.025391" xlink:href="#DejaVuSans-65"/>
     <use x="1128.548828" xlink:href="#DejaVuSans-20"/>
     <use x="1160.335938" xlink:href="#DejaVuSans-28"/>
     <use x="1199.349609" xlink:href="#DejaVuSans-65"/>
     <use x="1260.873047" xlink:href="#DejaVuSans-56"/>
     <use x="1329.28125" xlink:href="#DejaVuSans-2f"/>
     <use x="1362.972656" xlink:href="#DejaVuSans-6e"/>
     <use x="1426.351562" xlink:href="#DejaVuSans-6d"/>
     <use x="1523.763672" xlink:href="#DejaVuSans-29"/>
    </g>
   </g>
   <g id="legend_1">
    <g id="patch_7">
     <path d="M 79 103.8 
L 215.11875 103.8 
Q 217.11875 103.8 217.11875 101.8 
L 217.11875 88.121875 
Q 217.11875 86.121875 215.11875 86.121875 
L 79 86.121875 
Q 77 86.121875 77 88.121875 
L 77 101.8 
Q 77 103.8 79 103.8 
z
" style="fill:#ffffff;opacity:0.8;stroke:#cccccc;stroke-linejoin:miter;"/>
    </g>
    <g id="line2d_34">
     <path d="M 81 94.220313 
L 101 94.220313 
" style="fill:none;stroke:#ff0000;stroke-linecap:square;stroke-width:1.5;"/>
    </g>
    <g id="line2d_35"/>
    <g id="text_9">
     <!-- 200k -->
     <defs>
      <path d="M 9.078125 75.984375 
L 18.109375 75.984375 
L 18.109375 31.109375 
L 44.921875 54.6875 
L 56.390625 54.6875 
L 27.390625 29.109375 
L 57.625 0 
L 45.90625 0 
L 18.109375 26.703125 
L 18.109375 0 
L 9.078125 0 
z
" id="DejaVuSans-6b"/>
     </defs>
     <g transform="translate(109 97.720313)scale(0.1 -0.1)">
      <use xlink:href="#DejaVuSans-32"/>
      <use x="63.623047" xlink:href="#DejaVuSans-30"/>
      <use x="127.246094" xlink:href="#DejaVuSans-30"/>
      <use x="190.869141" xlink:href="#DejaVuSans-6b"/>
     </g>
    </g>
    <g id="line2d_36">
     <path d="M 153.878125 94.220313 
L 173.878125 94.220313 
" style="fill:none;stroke:#0000ff;stroke-dasharray:5.55,2.4;stroke-dashoffset:0;stroke-width:1.5;"/>
    </g>
    <g id="line2d_37"/>
    <g id="text_10">
     <!-- 1000k -->
     <g transform="translate(181.878125 97.720313)scale(0.1 -0.1)">
      <use xlink:href="#DejaVuSans-31"/>
      <use x="63.623047" xlink:href="#DejaVuSans-30"/>
      <use x="127.246094" xlink:href="#DejaVuSans-30"/>
      <use x="190.869141" xlink:href="#DejaVuSans-30"/>
      <use x="254.492188" xlink:href="#DejaVuSans-6b"/>
     </g>
    </g>
   </g>
  </g>
  <g id="axes_2">
   <g id="patch_8">
    <path d="M 72 244.8 
L 648 244.8 
L 648 164.8 
L 72 164.8 
z
" style="fill:#ffffff;"/>
   </g>
   <g id="matplotlib.axis_3">
    <g id="xtick_29">
     <g id="line2d_38">
      <g>
       <use style="stroke:#000000;stroke-width:0.8;" x="72" xlink:href="#me92a03ba57" y="244.8"/>
      </g>
     </g>
     <g id="text_11">
      <!-- $\mathdefault{10^{0}}$ -->
      <g transform="translate(63.2 259.398437)scale(0.1 -0.1)">
       <use transform="translate(0 0.765625)" xlink:href="#DejaVuSans-31"/>
       <use transform="translate(63.623047 0.765625)" xlink:href="#DejaVuSans-30"/>
       <use transform="translate(128.203125 39.046875)scale(0.7)" xlink:href="#DejaVuSans-30"/>
      </g>
     </g>
    </g>
    <g id="xtick_30">
     <g id="line2d_39">
      <g>
       <use style="stroke:#000000;stroke-width:0.8;" x="264" xlink:href="#me92a03ba57" y="244.8"/>
      </g>
     </g>
     <g id="text_12">
      <!-- $\mathdefault{10^{1}}$ -->
      <g transform="translate(255.2 259.398437)scale(0.1 -0.1)">
       <use transform="translate(0 0.684375)" xlink:href="#DejaVuSans-31"/>
       <use transform="translate(63.623047 0.684375)" xlink:href="#DejaVuSans-30"/>
       <use transform="translate(128.203125 38.965625)scale(0.7)" xlink:href="#DejaVuSans-31"/>
      </g>
     </g>
    </g>
    <g id="xtick_31">
     <g id="line2d_40">
      <g>
       <use style="stroke:#000000;stroke-width:0.8;" x="456" xlink:href="#me92a03ba57" y="244.8"/>
      </g>
     </g>
     <g id="text_13">
      <!-- $\mathdefault{10^{2}}$ -->
      <g transform="translate(447.2 259.398437)scale(0.1 -0.1)">
       <use transform="translate(0 0.765625)" xlink:href="#DejaVuSans-31"/>
       <use transform="translate(63.623047 0.765625)" xlink:href="#DejaVuSans-30"/>
       <use transform="translate(128.203125 39.046875)scale(0.7)" xlink:href="#DejaVuSans-32"/>
      </g>
     </g>
    </g>
    <g id="xtick_32">
     <g id="line2d_41">
      <g>
       <use style="stroke:#000000;stroke-width:0.8;" x="648" xlink:href="#me92a03ba57" y="244.8"/>
      </g>
     </g>
     <g id="text_14">
      <!-- $\mathdefault{10^{3}}$ -->
      <g transform="translate(639.2 259.398437)scale(0.1 -0.1)">
       <use transform="translate(0 0.765625)" xlink:href="#DejaVuSans-31"/>
       <use transform="translate(63.623047 0.765625)" xlink:href="#DejaVuSans-30"/>
       <use transform="translate(128.203125 39.046875)scale(0.7)" xlink:href="#DejaVuSans-33"/>
      </g>
     </g>
    </g>
    <g id="xtick_33">
     <g id="line2d_42">
      <g>
       <use style="stroke:#000000;stroke-width:0.6;" x="129.797759" xlink:href="#m63668661cb" y="244.8"/>
      </g>
     </g>
    </g>
    <g id="xtick_34">
     <g id="line2d_43">
      <g>
       <use style="stroke:#000000;stroke-width:0.6;" x="163.607281" xlink:href="#m63668661cb" y="244.8"/>
      </g>
     </g>
    </g>
    <g id="xtick_35">
     <g id="line2d_44">
      <g>
       <use style="stroke:#000000;stroke-width:0.6;" x="187.595518" xlink:href="#m63668661cb" y="244.8"/>
      </g>
     </g>
    </g>
    <g id="xtick_36">
     <g id="line2d_45">
      <g>
       <use style="stroke:#000000;stroke-width:0.6;" x="206.202241" xlink:href="#m63668661cb" y="244.8"/>
      </g>
     </g>
    </g>
    <g id="xtick_37">
     <g id="line2d_46">
      <g>
       <use style="stroke:#000000;stroke-width:0.6;" x="221.40504" xlink:href="#m63668661cb" y="244.8"/>
      </g>
     </g>
    </g>
    <g id="xtick_38">
     <g id="line2d_47">
      <g>
       <use style="stroke:#000000;stroke-width:0.6;" x="234.258824" xlink:href="#m63668661cb" y="244.8"/>
      </g>
     </g>
    </g>
    <g id="xtick_39">
     <g id="line2d_48">
      <g>
       <use style="stroke:#000000;stroke-width:0.6;" x="245.393278" xlink:href="#m63668661cb" y="244.8"/>
      </g>
     </g>
    </g>
    <g id="xtick_40">
     <g id="line2d_49">
      <g>
       <use style="stroke:#000000;stroke-width:0.6;" x="255.214562" xlink:href="#m63668661cb" y="244.8"/>
      </g>
     </g>
    </g>
    <g id="xtick_41">
     <g id="line2d_50">
      <g>
       <use style="stroke:#000000;stroke-width:0.6;" x="321.797759" xlink:href="#m63668661cb" y="244.8"/>
      </g>
     </g>
    </g>
    <g id="xtick_42">
     <g id="line2d_51">
      <g>
       <use style="stroke:#000000;stroke-width:0.6;" x="355.607281" xlink:href="#m63668661cb" y="244.8"/>
      </g>
     </g>
    </g>
    <g id="xtick_43">
     <g id="line2d_52">
      <g>
       <use style="stroke:#000000;stroke-width:0.6;" x="379.595518" xlink:href="#m63668661cb" y="244.8"/>
      </g>
     </g>
    </g>
    <g id="xtick_44">
     <g id="line2d_53">
      <g>
       <use style="stroke:#000000;stroke-width:0.6;" x="398.202241" xlink:href="#m63668661cb" y="244.8"/>
      </g>
     </g>
    </g>
    <g id="xtick_45">
     <g id="line2d_54">
      <g>
       <use style="stroke:#000000;stroke-width:0.6;" x="413.40504" xlink:href="#m63668661cb" y="244.8"/>
      </g>
     </g>
    </g>
    <g id="xtick_46">
     <g id="line2d_55">
      <g>
       <use style="stroke:#000000;stroke-width:0.6;" x="426.258824" xlink:href="#m63668661cb" y="244.8"/>
      </g>
     </g>
    </g>
    <g id="xtick_47">
     <g id="line2d_56">
      <g>
       <use style="stroke:#000000;stroke-width:0.6;" x="437.393278" xlink:href="#m63668661cb" y="244.8"/>
      </g>
     </g>
    </g>
    <g id="xtick_48">
     <g id="line2d_57">
      <g>
       <use style="stroke:#000000;stroke-width:0.6;" x="447.214562" xlink:href="#m63668661cb" y="244.8"/>
      </g>
     </g>
    </g>
    <g id="xtick_49">
     <g id="line2d_58">
      <g>
       <use style="stroke:#000000;stroke-width:0.6;" x="513.797759" xlink:href="#m63668661cb" y="244.8"/>
      </g>
     </g>
    </g>
    <g id="xtick_50">
     <g id="line2d_59">
      <g>
       <use style="stroke:#000000;stroke-width:0.6;" x="547.607281" xlink:href="#m63668661cb" y="244.8"/>
      </g>
     </g>
    </g>
    <g id="xtick_51">
     <g id="line2d_60">
      <g>
       <use style="stroke:#000000;stroke-width:0.6;" x="571.595518" xlink:href="#m63668661cb" y="244.8"/>
      </g>
     </g>
    </g>
    <g id="xtick_52">
     <g id="line2d_61">
      <g>
       <use style="stroke:#000000;stroke-width:0.6;" x="590.202241" xlink:href="#m63668661cb" y="244.8"/>
      </g>
     </g>
    </g>
    <g id="xtick_53">
     <g id="line2d_62">
      <g>
       <use style="stroke:#000000;stroke-width:0.6;" x="605.40504" xlink:href="#m63668661cb" y="244.8"/>
      </g>
     </g>
    </g>
    <g id="xtick_54">
     <g id="line2d_63">
      <g>
       <use style="stroke:#000000;stroke-width:0.6;" x="618.258824" xlink:href="#m63668661cb" y="244.8"/>
      </g>
     </g>
    </g>
    <g id="xtick_55">
     <g id="line2d_64">
      <g>
       <use style="stroke:#000000;stroke-width:0.6;" x="629.393278" xlink:href="#m63668661cb" y="244.8"/>
      </g>
     </g>
    </g>
    <g id="xtick_56">
     <g id="line2d_65">
      <g>
       <use style="stroke:#000000;stroke-width:0.6;" x="639.214562" xlink:href="#m63668661cb" y="244.8"/>
      </g>
     </g>
    </g>
    <g id="text_15">
     <!-- Depth (nm) -->
     <defs>
      <path d="M 19.671875 64.796875 
L 19.671875 8.109375 
L 31.59375 8.109375 
Q 46.6875 8.109375 53.6875 14.9375 
Q 60.6875 21.78125 60.6875 36.53125 
Q 60.6875 51.171875 53.6875 57.984375 
Q 46.6875 64.796875 31.59375 64.796875 
z
M 9.8125 72.90625 
L 30.078125 72.90625 
Q 51.265625 72.90625 61.171875 64.09375 
Q 71.09375 55.28125 71.09375 36.53125 
Q 71.09375 17.671875 61.125 8.828125 
Q 51.171875 0 30.078125 0 
L 9.8125 0 
z
" id="DejaVuSans-44"/>
     </defs>
     <g transform="translate(331.240625 273.076562)scale(0.1 -0.1)">
      <use xlink:href="#DejaVuSans-44"/>
      <use x="77.001953" xlink:href="#DejaVuSans-65"/>
      <use x="138.525391" xlink:href="#DejaVuSans-70"/>
      <use x="202.001953" xlink:href="#DejaVuSans-74"/>
      <use x="241.210938" xlink:href="#DejaVuSans-68"/>
      <use x="304.589844" xlink:href="#DejaVuSans-20"/>
      <use x="336.376953" xlink:href="#DejaVuSans-28"/>
      <use x="375.390625" xlink:href="#DejaVuSans-6e"/>
      <use x="438.769531" xlink:href="#DejaVuSans-6d"/>
      <use x="536.181641" xlink:href="#DejaVuSans-29"/>
     </g>
    </g>
   </g>
   <g id="matplotlib.axis_4">
    <g id="ytick_4">
     <g id="line2d_66">
      <g>
       <use style="stroke:#000000;stroke-width:0.8;" x="72" xlink:href="#m32c135fd6a" y="244.829629"/>
      </g>
     </g>
     <g id="text_16">
      <!-- 0 -->
      <g transform="translate(58.6375 248.628848)scale(0.1 -0.1)">
       <use xlink:href="#DejaVuSans-30"/>
      </g>
     </g>
    </g>
    <g id="ytick_5">
     <g id="line2d_67">
      <g>
       <use style="stroke:#000000;stroke-width:0.8;" x="72" xlink:href="#m32c135fd6a" y="215.200658"/>
      </g>
     </g>
     <g id="text_17">
      <!-- 1000 -->
      <g transform="translate(39.55 218.999877)scale(0.1 -0.1)">
       <use xlink:href="#DejaVuSans-31"/>
       <use x="63.623047" xlink:href="#DejaVuSans-30"/>
       <use x="127.246094" xlink:href="#DejaVuSans-30"/>
       <use x="190.869141" xlink:href="#DejaVuSans-30"/>
      </g>
     </g>
    </g>
    <g id="ytick_6">
     <g id="line2d_68">
      <g>
       <use style="stroke:#000000;stroke-width:0.8;" x="72" xlink:href="#m32c135fd6a" y="185.571687"/>
      </g>
     </g>
     <g id="text_18">
      <!-- 2000 -->
      <g transform="translate(39.55 189.370905)scale(0.1 -0.1)">
       <use xlink:href="#DejaVuSans-32"/>
       <use x="63.623047" xlink:href="#DejaVuSans-30"/>
       <use x="127.246094" xlink:href="#DejaVuSans-30"/>
       <use x="190.869141" xlink:href="#DejaVuSans-30"/>
      </g>
     </g>
    </g>
   </g>
   <g id="line2d_69">
    <path clip-path="url(#pa40bd31351)" d="M -1 209.906703 
L 72 209.906553 
L 187.595518 209.030425 
L 234.258824 208.403772 
L 245.393278 208.337403 
L 297.809522 206.675218 
L 308.246193 206.64707 
L 321.797759 205.77183 
L 325.866105 205.711387 
L 329.745155 205.772719 
L 333.451745 205.38458 
L 337.000558 205.132437 
L 340.404482 205.065772 
L 343.674883 204.8 
L 346.821843 204.749334 
L 349.854342 204.301641 
L 352.780416 204.199124 
L 358.341445 203.72595 
L 363.554676 203.704913 
L 366.043952 203.374846 
L 368.461065 203.169221 
L 373.094731 202.956485 
L 375.318451 202.519162 
L 377.484405 202.591456 
L 383.663864 201.821992 
L 389.416803 201.447482 
L 391.249504 201.210746 
L 393.042789 200.831496 
L 394.798318 200.854606 
L 396.517647 200.55565 
L 398.202241 200.620834 
L 401.472642 199.971367 
L 403.060967 199.811074 
L 404.619602 199.903516 
L 412.003586 198.840725 
L 413.40504 198.713024 
L 416.139204 198.230368 
L 417.473385 198.271256 
L 418.786555 197.853191 
L 421.352436 197.592753 
L 422.606362 197.277204 
L 423.841711 197.220317 
L 425.059025 197.048765 
L 426.258824 196.636922 
L 427.441603 196.451445 
L 428.607839 196.411149 
L 434.206219 194.978885 
L 435.282164 195.120808 
L 436.344402 194.759631 
L 437.393278 194.651781 
L 438.429124 194.426008 
L 440.462994 194.414749 
L 441.461623 193.90039 
L 442.448434 193.773282 
L 443.423703 193.415957 
L 444.387697 193.297737 
L 445.340673 192.855377 
L 446.282881 192.733898 
L 447.214562 192.769453 
L 449.948726 191.9671 
L 450.840548 191.801474 
L 451.722932 191.504592 
L 452.596077 191.549331 
L 453.460173 190.97127 
L 454.315407 190.685647 
L 455.161957 190.817792 
L 456.829704 190.351136 
L 457.651233 189.896331 
L 460.068345 189.325677 
L 462.417361 188.844503 
L 463.185888 188.975759 
L 463.947396 188.71058 
L 464.702012 188.187036 
L 465.44986 188.337255 
L 466.191061 187.950004 
L 467.653985 187.838303 
L 468.375934 187.724231 
L 469.091685 187.783786 
L 470.505017 186.799215 
L 471.202799 186.439223 
L 471.894791 186.533443 
L 472.581087 186.354188 
L 474.606722 185.499984 
L 475.930314 185.457615 
L 476.584314 184.95096 
L 477.233224 184.729631 
L 477.877124 184.700299 
L 478.516089 184.196013 
L 480.404121 184.000759 
L 481.63947 183.527584 
L 482.250349 183.208776 
L 482.856785 183.377069 
L 483.458842 183.337662 
L 484.056583 183.106556 
L 484.65007 182.467459 
L 485.824519 182.132059 
L 486.405598 181.889398 
L 487.555748 181.701847 
L 488.124928 181.147192 
L 488.690249 181.133563 
L 489.251764 181.355188 
L 489.809522 181.119341 
L 490.363574 181.1306 
L 492.003978 180.190473 
L 493.079923 180.052994 
L 494.668248 179.200569 
L 495.710568 179.102201 
L 496.226883 178.770356 
L 497.250019 178.51851 
L 497.756917 178.155555 
L 498.260753 178.109926 
L 499.259382 177.689788 
L 499.754247 177.159133 
L 500.246193 176.859288 
L 500.735253 176.387891 
L 501.221462 176.24419 
L 502.185456 176.303744 
L 502.663305 175.859902 
L 503.138432 176.233227 
L 503.610867 176.132489 
L 504.08064 175.392061 
L 504.547782 175.197991 
L 505.012321 175.232657 
L 505.933706 174.688077 
L 506.845022 174.50971 
L 507.746485 173.840984 
L 508.193588 173.381735 
L 508.638307 173.436253 
L 509.080666 172.951226 
L 509.520691 173.345292 
L 509.958407 172.94856 
L 510.393836 173.062039 
L 510.827003 172.634196 
L 511.257932 172.914486 
L 512.113166 172.787674 
L 512.537515 172.436571 
L 512.959717 172.377906 
L 513.379791 172.173169 
L 513.797759 172.123689 
L 514.213643 171.954508 
L 514.627463 171.628589 
L 515.039239 171.736735 
L 515.448992 171.574664 
L 515.856741 171.055565 
L 516.262506 171.291708 
L 516.666306 171.258227 
L 517.866105 169.986848 
L 518.656485 170.436615 
L 519.439444 169.810259 
L 519.828184 169.869813 
L 520.21512 169.555154 
L 520.600269 169.800481 
L 520.983647 168.81354 
L 521.36527 168.978574 
L 521.745155 168.732061 
L 522.123317 168.762282 
L 522.499771 169.057979 
L 523.619043 168.500066 
L 523.98882 168.71132 
L 524.356965 168.616804 
L 524.723491 168.150148 
L 525.088413 168.265997 
L 525.8135 167.894746 
L 526.173693 168.021558 
L 526.532337 167.650603 
L 526.889445 167.096245 
L 527.24503 167.018321 
L 527.599105 167.462756 
L 528.302776 166.973878 
L 528.652397 167.239649 
L 529.000558 166.658329 
L 529.347272 166.396409 
L 529.69255 166.474629 
L 530.036405 166.431667 
L 530.378847 166.231079 
L 530.719888 165.729757 
L 531.059541 166.2933 
L 531.397815 166.167377 
L 531.734723 165.83731 
L 532.070275 166.145155 
L 533.068904 166.155525 
L 533.39914 165.974492 
L 533.728074 166.681143 
L 534.055715 166.755512 
L 534.382073 166.673144 
L 535.030984 166.068416 
L 535.353555 166.306633 
L 535.994977 165.775682 
L 536.313848 166.426038 
L 536.631504 166.077305 
L 536.947954 166.321448 
L 537.577274 164.8 
L 537.890162 165.465763 
L 538.20188 165.577464 
L 538.821843 165.434653 
L 539.130104 164.841777 
L 539.743228 165.355839 
L 541.256601 165.599982 
L 541.854342 165.314063 
L 542.151613 165.348729 
L 542.742996 165.959974 
L 543.330213 165.782793 
L 543.622278 165.961752 
L 543.913324 165.378358 
L 544.203358 165.587538 
L 544.492386 166.086786 
L 544.780416 165.840569 
L 545.067454 165.932419 
L 545.353507 166.265153 
L 545.638583 166.289745 
L 545.922687 166.056861 
L 546.488009 166.658329 
L 546.769238 166.652403 
L 547.049523 166.894176 
L 547.328868 166.610034 
L 547.607281 166.943952 
L 548.161333 166.708995 
L 548.436985 166.797585 
L 548.711728 166.572701 
L 549.258514 166.580997 
L 549.530568 166.810029 
L 549.801738 167.627196 
L 550.072028 167.532976 
L 550.341445 167.862154 
L 550.609995 167.656825 
L 551.410492 168.100371 
L 551.675626 168.65947 
L 552.203378 168.655914 
L 552.466007 168.295922 
L 552.988796 169.25916 
L 553.248966 168.751616 
L 553.508327 168.713987 
L 554.281605 169.621819 
L 554.537779 169.641966 
L 554.793169 170.202843 
L 555.047778 170.298841 
L 555.301612 170.263286 
L 555.554676 169.924923 
L 555.806975 170.222991 
L 556.309293 170.431282 
L 556.559322 170.722535 
L 557.057141 171.993025 
L 557.304941 171.897324 
L 558.043952 173.061742 
L 558.288841 173.172258 
L 558.533012 173.643359 
L 558.776471 173.232998 
L 559.019221 174.036832 
L 559.261266 173.957722 
L 559.502611 174.14794 
L 559.743259 174.689262 
L 560.222482 174.979033 
L 560.461065 174.728076 
L 561.172743 175.748201 
L 561.408626 175.968048 
L 561.643844 175.89605 
L 561.8784 176.166562 
L 562.112297 176.069675 
L 562.345541 176.327151 
L 562.578134 177.280908 
L 562.81008 177.331573 
L 563.502072 178.684728 
L 563.731466 178.599101 
L 563.96023 178.835836 
L 564.188368 178.649766 
L 564.869062 179.57982 
L 565.094731 180.519947 
L 565.319791 180.769719 
L 565.991348 182.157836 
L 566.214003 182.039617 
L 566.436066 182.497681 
L 566.657539 182.397535 
L 566.878426 182.505088 
L 567.098728 182.743898 
L 567.318451 183.61736 
L 567.537595 183.453808 
L 567.974165 184.899109 
L 568.191595 184.993625 
L 569.270323 187.055802 
L 569.484405 186.807215 
L 570.12337 188.584953 
L 570.335275 188.746727 
L 570.546642 188.659322 
L 570.967777 190.224324 
L 571.17755 190.141659 
L 571.595518 191.603849 
L 571.80372 191.559998 
L 572.011402 192.265167 
L 572.218569 192.359091 
L 572.836998 193.535065 
L 573.450875 195.53028 
L 573.6545 195.921382 
L 573.85763 195.836644 
L 574.665235 197.884302 
L 575.265846 199.603078 
L 575.862162 200.292841 
L 576.059991 201.142007 
L 576.454244 201.617552 
L 577.237204 204.016314 
L 577.4318 205.1194 
L 577.625943 205.191102 
L 578.205676 206.214191 
L 578.589937 207.291796 
L 578.972436 208.453252 
L 579.163029 208.751912 
L 579.732209 210.675129 
L 579.921076 210.958085 
L 580.485122 212.302648 
L 580.672293 212.349462 
L 581.045379 213.457585 
L 581.231297 213.352106 
L 581.601896 214.816666 
L 581.786579 215.169547 
L 582.154724 216.362113 
L 582.52125 217.105386 
L 582.70391 217.941604 
L 582.886172 217.835384 
L 583.068036 218.745705 
L 583.249504 219.051417 
L 583.79155 220.852591 
L 583.971452 220.809659 
L 584.150967 221.444875 
L 584.330096 221.445497 
L 584.865186 223.439349 
L 585.749442 225.21445 
L 586.624419 227.609419 
L 586.971855 228.312929 
L 587.145031 229.126245 
L 587.490309 229.421497 
L 587.834164 230.373269 
L 588.005561 230.640374 
L 588.347301 231.687462 
L 588.687646 232.01818 
L 589.868034 234.837525 
L 590.035305 234.888694 
L 590.202241 235.366136 
L 590.368843 235.335381 
L 591.689814 237.796837 
L 591.853474 237.793815 
L 592.016813 238.316618 
L 592.504919 238.756075 
L 592.828743 239.164481 
L 593.792737 240.454852 
L 595.375033 242.222259 
L 595.531624 242.216792 
L 595.99964 242.655417 
L 597.081567 243.303879 
L 597.388128 243.450362 
L 599.05436 244.085491 
L 601.420038 244.545284 
L 608.808963 244.80953 
L 613.730597 244.8292 
L 629.288982 244.829629 
L 629.288982 244.829629 
" style="fill:none;stroke:#ff0000;stroke-linecap:square;stroke-width:1.5;"/>
   </g>
   <g id="line2d_70">
    <path clip-path="url(#pa40bd31351)" d="M -1 209.905393 
L 72 209.90525 
L 163.607281 209.288434 
L 206.202241 208.796533 
L 234.258824 208.288989 
L 245.393278 208.159096 
L 308.246193 206.366721 
L 325.866105 205.722113 
L 333.451745 205.33024 
L 340.404482 204.910457 
L 346.821843 204.446467 
L 352.780416 204.218265 
L 358.341445 203.773475 
L 360.988796 203.689506 
L 387.542914 201.406594 
L 399.853474 200.093142 
L 406.149636 199.582753 
L 409.127972 199.045106 
L 414.783328 198.240738 
L 416.139204 198.182014 
L 418.786555 197.721402 
L 420.079364 197.685432 
L 421.352436 197.37095 
L 422.606362 197.276434 
L 433.11621 195.399616 
L 434.206219 195.276478 
L 436.344402 194.793408 
L 437.393278 194.740787 
L 441.461623 193.888835 
L 448.135947 192.586523 
L 449.047263 192.319566 
L 450.840548 192.09006 
L 454.315407 191.209546 
L 455.161957 191.086468 
L 457.651233 190.417505 
L 464.702012 188.915553 
L 465.44986 188.607115 
L 467.653985 187.994685 
L 468.375934 187.767134 
L 469.091685 187.684528 
L 471.894791 186.736461 
L 473.936964 186.164799 
L 475.271145 185.801252 
L 475.930314 185.401616 
L 476.584314 185.22799 
L 477.233224 185.230361 
L 477.877124 185.010514 
L 478.516089 184.661485 
L 480.404121 184.244901 
L 483.458842 183.092334 
L 484.056583 182.876043 
L 484.65007 182.844636 
L 485.824519 182.372943 
L 486.982656 182.103912 
L 488.124928 181.537998 
L 488.690249 181.393409 
L 490.363574 180.681129 
L 490.913969 180.612389 
L 492.003978 180.313137 
L 492.543686 180.178621 
L 493.612733 179.654188 
L 499.259382 177.615123 
L 500.246193 177.075875 
L 501.704852 176.798548 
L 502.185456 176.492777 
L 503.138432 176.333966 
L 507.296972 174.675929 
L 507.746485 174.364824 
L 508.193588 174.428823 
L 508.638307 174.046609 
L 509.520691 173.911501 
L 509.958407 173.584397 
L 510.827003 173.304107 
L 511.257932 173.186777 
L 512.113166 172.750638 
L 512.537515 172.582938 
L 513.379791 172.574642 
L 514.627463 171.71718 
L 515.039239 171.840436 
L 515.448992 171.483703 
L 515.856741 171.480148 
L 516.262506 171.182673 
L 516.666306 171.183266 
L 517.468087 170.754831 
L 517.866105 170.735276 
L 518.262231 170.482837 
L 518.656485 170.446097 
L 519.048884 170.542095 
L 521.745155 169.70715 
L 522.123317 169.374713 
L 522.874534 169.283456 
L 523.24762 169.181532 
L 523.619043 168.924353 
L 523.98882 168.830133 
L 524.723491 168.359032 
L 525.088413 168.407031 
L 525.8135 168.090594 
L 526.173693 168.130889 
L 526.889445 167.786008 
L 527.599105 167.726157 
L 527.951682 167.697713 
L 528.652397 167.345721 
L 529.347272 167.311352 
L 529.69255 167.311944 
L 530.378847 166.861584 
L 531.059541 166.778623 
L 531.397815 166.502481 
L 532.404482 166.28856 
L 532.737355 166.468704 
L 533.068904 166.324114 
L 534.055715 166.485296 
L 535.030984 166.175377 
L 535.353555 166.283226 
L 536.313848 166.085305 
L 536.631504 166.085897 
L 536.947954 166.222783 
L 537.577274 166.194339 
L 537.890162 165.946641 
L 538.512438 165.823385 
L 538.821843 165.608871 
L 539.43723 165.856569 
L 539.743228 165.681166 
L 544.492386 165.796719 
L 545.067454 166.179525 
L 545.638583 165.76946 
L 546.488009 166.40589 
L 547.328868 166.776252 
L 547.607281 166.564702 
L 547.884767 166.75966 
L 548.436985 166.737142 
L 548.711728 167.061283 
L 549.530568 167.044098 
L 549.801738 167.2995 
L 550.072028 167.318463 
L 550.877682 167.944819 
L 551.410492 168.026595 
L 551.675626 168.180073 
L 551.93992 168.477548 
L 553.248966 168.88702 
L 553.508327 169.1282 
L 553.766884 169.535302 
L 554.281605 169.430416 
L 554.537779 169.694113 
L 555.301612 170.047291 
L 555.554676 170.405801 
L 556.058512 170.43306 
L 556.808603 171.113341 
L 558.533012 172.533161 
L 559.019221 173.21285 
L 559.261266 173.531065 
L 559.502611 173.610471 
L 559.743259 174.030017 
L 559.983215 174.041869 
L 560.936191 174.902887 
L 561.172743 174.923627 
L 561.643844 175.874124 
L 561.8784 176.052491 
L 562.112297 175.9559 
L 562.345541 176.500481 
L 563.502072 177.784008 
L 563.96023 178.516436 
L 565.094731 179.863962 
L 565.544244 180.601723 
L 565.991348 181.383335 
L 566.214003 181.875176 
L 566.436066 182.033987 
L 567.098728 183.266553 
L 567.318451 183.388031 
L 567.974165 184.559561 
L 568.40846 185.373172 
L 568.840505 185.955026 
L 569.055691 186.36675 
L 569.270323 186.469326 
L 569.697937 187.592679 
L 573.042127 193.947678 
L 574.060265 196.428808 
L 574.665235 197.561761 
L 575.265846 199.202613 
L 575.663864 199.786363 
L 576.257351 201.351899 
L 576.454244 201.681847 
L 576.846643 202.869791 
L 577.237204 203.625211 
L 577.819636 205.218894 
L 578.781406 207.689595 
L 579.542914 209.522977 
L 579.921076 210.532791 
L 580.485122 212.020877 
L 580.672293 212.562257 
L 580.859044 212.756208 
L 585.573339 225.09863 
L 585.925173 225.855591 
L 587.834164 230.342781 
L 588.347301 231.331618 
L 588.8573 232.527384 
L 591.525833 237.479866 
L 592.342534 238.679899 
L 592.666988 239.270179 
L 592.990184 239.532336 
L 593.312133 240.017173 
L 593.632843 240.321818 
L 594.270586 241.056474 
L 594.429263 241.124532 
L 594.903489 241.680561 
L 596.465043 242.864529 
L 596.927863 243.136339 
L 597.540987 243.444955 
L 598.603225 243.860086 
L 598.904253 243.913288 
L 599.503067 244.138243 
L 600.981555 244.430034 
L 602.578175 244.617612 
L 603.293926 244.657923 
L 608.004605 244.802291 
L 610.132555 244.813036 
L 629.288982 244.829629 
L 629.288982 244.829629 
" style="fill:none;stroke:#0000ff;stroke-dasharray:5.55,2.4;stroke-dashoffset:0;stroke-width:1.5;"/>
   </g>
   <g id="patch_9">
    <path d="M 72 244.8 
L 72 164.8 
" style="fill:none;stroke:#000000;stroke-linecap:square;stroke-linejoin:miter;stroke-width:0.8;"/>
   </g>
   <g id="patch_10">
    <path d="M 648 244.8 
L 648 164.8 
" style="fill:none;stroke:#000000;stroke-linecap:square;stroke-linejoin:miter;stroke-width:0.8;"/>
   </g>
   <g id="patch_11">
    <path d="M 72 244.8 
L 648 244.8 
" style="fill:none;stroke:#000000;stroke-linecap:square;stroke-linejoin:miter;stroke-width:0.8;"/>
   </g>
   <g id="patch_12">
    <path d="M 72 164.8 
L 648 164.8 
" style="fill:none;stroke:#000000;stroke-linecap:square;stroke-linejoin:miter;stroke-width:0.8;"/>
   </g>
   <g id="text_19">
    <!-- Dissipation per depth slice (eV/nm) -->
    <defs>
     <path d="M 34.28125 27.484375 
Q 23.390625 27.484375 19.1875 25 
Q 14.984375 22.515625 14.984375 16.5 
Q 14.984375 11.71875 18.140625 8.90625 
Q 21.296875 6.109375 26.703125 6.109375 
Q 34.1875 6.109375 38.703125 11.40625 
Q 43.21875 16.703125 43.21875 25.484375 
L 43.21875 27.484375 
z
M 52.203125 31.203125 
L 52.203125 0 
L 43.21875 0 
L 43.21875 8.296875 
Q 40.140625 3.328125 35.546875 0.953125 
Q 30.953125 -1.421875 24.3125 -1.421875 
Q 15.921875 -1.421875 10.953125 3.296875 
Q 6 8.015625 6 15.921875 
Q 6 25.140625 12.171875 29.828125 
Q 18.359375 34.515625 30.609375 34.515625 
L 43.21875 34.515625 
L 43.21875 35.40625 
Q 43.21875 41.609375 39.140625 45 
Q 35.0625 48.390625 27.6875 48.390625 
Q 23 48.390625 18.546875 47.265625 
Q 14.109375 46.140625 10.015625 43.890625 
L 10.015625 52.203125 
Q 14.9375 54.109375 19.578125 55.046875 
Q 24.21875 56 28.609375 56 
Q 40.484375 56 46.34375 49.84375 
Q 52.203125 43.703125 52.203125 31.203125 
z
" id="DejaVuSans-61"/>
     <path d="M 30.609375 48.390625 
Q 23.390625 48.390625 19.1875 42.75 
Q 14.984375 37.109375 14.984375 27.296875 
Q 14.984375 17.484375 19.15625 11.84375 
Q 23.34375 6.203125 30.609375 6.203125 
Q 37.796875 6.203125 41.984375 11.859375 
Q 46.1875 17.53125 46.1875 27.296875 
Q 46.1875 37.015625 41.984375 42.703125 
Q 37.796875 48.390625 30.609375 48.390625 
z
M 30.609375 56 
Q 42.328125 56 49.015625 48.375 
Q 55.71875 40.765625 55.71875 27.296875 
Q 55.71875 13.875 49.015625 6.21875 
Q 42.328125 -1.421875 30.609375 -1.421875 
Q 18.84375 -1.421875 12.171875 6.21875 
Q 5.515625 13.875 5.515625 27.296875 
Q 5.515625 40.765625 12.171875 48.375 
Q 18.84375 56 30.609375 56 
z
" id="DejaVuSans-6f"/>
    </defs>
    <g transform="translate(254.16 158.8)scale(0.12 -0.12)">
     <use xlink:href="#DejaVuSans-44"/>
     <use x="77.001953" xlink:href="#DejaVuSans-69"/>
     <use x="104.785156" xlink:href="#DejaVuSans-73"/>
     <use x="156.884766" xlink:href="#DejaVuSans-73"/>
     <use x="208.984375" xlink:href="#DejaVuSans-69"/>
     <use x="236.767578" xlink:href="#DejaVuSans-70"/>
     <use x="300.244141" xlink:href="#DejaVuSans-61"/>
     <use x="361.523438" xlink:href="#DejaVuSans-74"/>
     <use x="400.732422" xlink:href="#DejaVuSans-69"/>
     <use x="428.515625" xlink:href="#DejaVuSans-6f"/>
     <use x="489.697266" xlink:href="#DejaVuSans-6e"/>
     <use x="553.076172" xlink:href="#DejaVuSans-20"/>
     <use x="584.863281" xlink:href="#DejaVuSans-70"/>
     <use x="648.339844" xlink:href="#DejaVuSans-65"/>
     <use x="709.863281" xlink:href="#DejaVuSans-72"/>
     <use x="750.976562" xlink:href="#DejaVuSans-20"/>
     <use x="782.763672" xlink:href="#DejaVuSans-64"/>
     <use x="846.240234" xlink:href="#DejaVuSans-65"/>
     <use x="907.763672" xlink:href="#DejaVuSans-70"/>
     <use x="971.240234" xlink:href="#DejaVuSans-74"/>
     <use x="1010.449219" xlink:href="#DejaVuSans-68"/>
     <use x="1073.828125" xlink:href="#DejaVuSans-20"/>
     <use x="1105.615234" xlink:href="#DejaVuSans-73"/>
     <use x="1157.714844" xlink:href="#DejaVuSans-6c"/>
     <use x="1185.498047" xlink:href="#DejaVuSans-69"/>
     <use x="1213.28125" xlink:href="#DejaVuSans-63"/>
     <use x="1268.261719" xlink:href="#DejaVuSans-65"/>
     <use x="1329.785156" xlink:href="#DejaVuSans-20"/>
     <use x="1361.572266" xlink:href="#DejaVuSans-28"/>
     <use x="1400.585938" xlink:href="#DejaVuSans-65"/>
     <use x="1462.109375" xlink:href="#DejaVuSans-56"/>
     <use x="1530.517578" xlink:href="#DejaVuSans-2f"/>
     <use x="1564.208984" xlink:href="#DejaVuSans-6e"/>
     <use x="1627.587891" xlink:href="#DejaVuSans-6d"/>
     <use x="1725" xlink:href="#DejaVuSans-29"/>
    </g>
   </g>
   <g id="legend_2">
    <g id="patch_13">
     <path d="M 79 239.8 
L 215.11875 239.8 
Q 217.11875 239.8 217.11875 237.8 
L 217.11875 224.121875 
Q 217.11875 222.121875 215.11875 222.121875 
L 79 222.121875 
Q 77 222.121875 77 224.121875 
L 77 237.8 
Q 77 239.8 79 239.8 
z
" style="fill:#ffffff;opacity:0.8;stroke:#cccccc;stroke-linejoin:miter;"/>
    </g>
    <g id="line2d_71">
     <path d="M 81 230.220312 
L 101 230.220312 
" style="fill:none;stroke:#ff0000;stroke-linecap:square;stroke-width:1.5;"/>
    </g>
    <g id="line2d_72"/>
    <g id="text_20">
     <!-- 200k -->
     <g transform="translate(109 233.720312)scale(0.1 -0.1)">
      <use xlink:href="#DejaVuSans-32"/>
      <use x="63.623047" xlink:href="#DejaVuSans-30"/>
      <use x="127.246094" xlink:href="#DejaVuSans-30"/>
      <use x="190.869141" xlink:href="#DejaVuSans-6b"/>
     </g>
    </g>
    <g id="line2d_73">
     <path d="M 153.878125 230.220312 
L 173.878125 230.220312 
" style="fill:none;stroke:#0000ff;stroke-dasharray:5.55,2.4;stroke-dashoffset:0;stroke-width:1.5;"/>
    </g>
    <g id="line2d_74"/>
    <g id="text_21">
     <!-- 1000k -->
     <g transform="translate(181.878125 233.720312)scale(0.1 -0.1)">
      <use xlink:href="#DejaVuSans-31"/>
      <use x="63.623047" xlink:href="#DejaVuSans-30"/>
      <use x="127.246094" xlink:href="#DejaVuSans-30"/>
      <use x="190.869141" xlink:href="#DejaVuSans-30"/>
      <use x="254.492188" xlink:href="#DejaVuSans-6b"/>
     </g>
    </g>
   </g>
  </g>
 </g>
 <defs>
  <clipPath id="pfd592f514d">
   <rect height="80" width="576" x="72" y="28.8"/>
  </clipPath>
  <clipPath id="pa40bd31351">
   <rect height="80" width="576" x="72" y="164.8"/>
  </clipPath>
 </defs>
</svg>
